<svg version="1.0" xmlns="http://www.w3.org/2000/svg" width="960pt" height="960pt" viewBox="0 0 960 960"><g transform="translate(0.000000,960.000000) scale(0.100000,-0.100000)" fill="#000" stroke="none"><path d="M8375 9504c-44-14-76-42-275-240l-225-224 343-343 344-344-164 44c-167 45-535 123-577 123-17 0-57 32-135 110l-112 110-81-81-80-81-149 11c-810 59-1596-32-2333-271-68-22-133-38-145-35-11 3-86 26-166 51-850 270-1808 342-2745 205-302-44-626-119-942-218l-162-51H386 0V4630 990h48e2 48e2v3640 3640h-345c-190 0-345 3-345 7 0 4 69 77 154 163 144 145 155 160 171 215 22 73 16 156-16 222-32 69-544 580-613 613-62 30-163 36-231 14zM3370 8256c409-42 757-109 1123-218l137-41V5033c0-1629-1-2963-3-2963-1 0-77 25-167 55-1135 381-2112 459-3027 240-151-36-406-117-524-166-40-16-73-29-75-29-2 0-4 1297-4 2883v2882l28 13c89 44 439 146 675 196 291 63 585 105 887 126 184 13 767 4 950-14zm3720 6c0-4-255-262-567-574l-568-566-105-4c-115-4-154-18-193-70-28-38-34-117-12-174l18-46-247-247-246-246 2-445 3-445 264-3c235-2 263-4 244-17-52-36-69-145-33-214 13-27 33-46 63-60l44-21 1209 2 1209 3 33 23c89 64 88 209-1 276-28 21-29 21-1068 24-571 1-1039 6-1039 10 0 4 109 117 243 250l243 242h6e2 601l33 23c49 33 70 66 76 122 8 71-25 132-86 163-44 22-48 22-470 22h-425l250 250 251 250h372c301 0 378 3 4e2 14 112 58 118 226 10 291-29 18-56 21-241 25l-207 5 360 360 360 360-127 127c-70 71-121 128-112 128 24 0 251-66 402-117l137-46V5064c0-1581-2-2874-4-2874-2 0-57 20-122 45-244 95-555 175-829 214-416 59-914 56-1385-10-396-55-977-198-1358-334-53-19-98-35-99-35-2 0-3 1333-3 2963v2963l43 12c499 144 950 226 1402 255 108 7 675 7 675-1zM5e2 4880V1820h-85-85v3060 3060h85 85V4880zm8770 0V1820h-85-85v3060 3060h85 85V4880zM5772 6193l3-148 148-3 147-3v-149-150l-297 2-298 3-3 298-2 297h150 149l3-147zm1719-4053c425-33 853-137 1169-284l75-35H7025c-1520 0-1706 2-1670 15 131 49 539 155 780 203 256 51 459 78 790 104 98 8 443 6 566-3zm-4751-10c411-25 823-99 1260-225 102-30 203-61 225-69 36-13-142-15-1640-15-1415 0-1676 2-1655 13 52 29 301 116 439 155 433 123 894 170 1371 141zm6530-725v-85H48e2 330v85 85h4470 4470v-85z"/><path d="M2580 6735v-155h-290-290v-110-110h290 290v-130-130h120 120v130 130h3e2 3e2v-130-130h120 120v130 130h320 320v110 110h-320-320v155 155h-120-120v-155-155h-3e2-3e2v155 155h-120-120v-155z"/><path d="M1350 6827c-104-132-124-161-114-164 5-2 59-31 119-64 145-81 313-192 404-269 40-34 76-58 80-53 36 41 142 196 139 203-6 16-131 112-231 177-81 53-353 203-368 203-2 0-15-15-29-33z"/><path d="M22e2 5635v-385l393-2 392-3 3-122 3-123h-441-440v-105-105h434 435l-6-37c-8-56-30-154-42-185l-11-28h-480-480v-105-105h420c258 0 420-4 420-9 0-22-171-180-251-233-150-1e2-416-216-617-268l-43-11 33-41c37-45 105-136 117-156 6-10 35-3 132 31 339 121 575 259 749 436 67 69 160 192 176 235 10 27 21 19 60-45 121-199 316-372 562-497 116-60 351-146 428-157 38-6 39-5 71 48 18 30 53 78 79 106 30 34 41 52 32 55-7 2-58 14-113 26-204 45-413 131-561 230-43 29-122 96-174 149l-95 96 468 3 467 2v105 105h-566c-498 0-565 2-560 15 3 8 12 54 21 102 9 49 18 98 21 111l4 22h465 465v105 105l-462 2-463 3v120 120l413 3 412 2v385 385h-935-935v-385zm790-5v-190h-280-280v190 190h280 280v-190zm840 0v-190l-292 2-293 3-3 188-2 187h295 295v-190z"/><path d="M1157 5858c-18-24-52-67-74-96l-39-53 130-68c190-98 312-176 461-293 22-17 23-17 48 20 13 20 48 69 76 109l50 72-67 49c-101 74-261 168-408 239-72 35-134 63-137 63-3 0-21-19-40-42z"/><path d="M1688 4893c-163-360-329-692-468-933-45-78-80-143-78-144 2-1 49-35 105-74 56-40 108-75 115-77 22-9 320 588 518 1037l48 107-99 75c-54 42-101 76-104 76-4 0-20-30-37-67z"/><path d="M5711 4613c-53-28-74-64-79-136-3-52 0-67 20-96 12-19 36-44 51-55 28-21 32-21 830-21 787 0 803 0 837 20 97 56 103 211 12 280-26 20-45 20-832 23-751 2-807 1-839-15z"/><path d="M6411 38e2c-80-19-124-82-119-171 5-64 32-110 81-137 30-16 97-17 870-20 549-2 858 1 895 8 1e2 18 157 106 132 202-16 56-29 75-70 101l-35 22-860 2c-473 0-875-2-894-7z"/></g></svg>